<mxfile host="app.diagrams.net" modified="2024-01-07T14:43:16.929Z" agent="Mozilla/5.0 (Windows NT 10.0; Win64; x64) AppleWebKit/537.36 (KHTML, like Gecko) Chrome/120.0.0.0 Safari/537.36" version="22.1.17" etag="mf6DQI9HmGBvoX_B6kge" type="github">
  <diagram name="第 1 页" id="Ug7J9FKKV1W9taiNYJFJ">
    <mxGraphModel>
      <root>
        <mxCell id="0" />
        <mxCell id="1" parent="0" />
      </root>
    </mxGraphModel>
  </diagram>
</mxfile>
